<svg width="27" height="30" viewBox="0 0 27 30" fill="none" xmlns="http://www.w3.org/2000/svg">
<path d="M10.5 24V21H7.5V18H10.5V15H13.5V18H16.5V21H13.5V24H10.5Z" fill="#9FC9F0"/>
<path fill-rule="evenodd" clip-rule="evenodd" d="M4.5 0C2.01472 0 0 2.01472 0 4.5V25.5C0 27.9853 2.01472 30 4.5 30H22.5C24.9853 30 27 27.9853 27 25.5V10.5C27 4.70101 22.299 0 16.5 0H4.5ZM4.5 3H15V10.5H24V25.5C24 26.3284 23.3284 27 22.5 27H4.5C3.67157 27 3 26.3284 3 25.5V4.5C3 3.67157 3.67157 3 4.5 3ZM18 3.15003C20.417 3.64065 22.4119 5.29358 23.3759 7.5H18V3.15003Z" fill="#9FC9F0"/>
</svg>
