<svg width="535" height="404" viewBox="0 0 535 404" fill="none" xmlns="http://www.w3.org/2000/svg">
<path d="M352.829 136.747C353.169 139.768 353.39 142.794 353.492 145.824C353.51 146.174 353.517 146.522 353.525 146.875L342.852 150.131C341.944 150.409 341.183 151.033 340.739 151.865C340.294 152.697 340.2 153.669 340.479 154.569L349.846 184.669C349.708 185.363 349.564 186.055 349.419 186.746C348.675 190.316 347.851 193.872 346.975 197.402C332.656 254.802 304.276 307.837 264.342 351.826L265.227 344.468C264.141 344.72 263.051 344.973 261.966 345.224C238.336 350.719 214.576 356.069 190.376 357.817C165.059 359.647 139.026 357.365 115.68 347.537C92.3275 337.705 71.8595 319.735 62.5284 296.383C59.3408 288.352 57.6086 279.827 57.4111 271.2C57.0028 254.601 62.2189 237.964 73.3833 225.655C90.9216 206.325 119.791 200.366 145.773 204.069C171.749 207.769 195.673 219.713 219.065 231.485C191.268 206.171 157.798 187.742 121.402 177.709C109.347 174.404 96.8932 171.986 85.761 166.336C74.6351 160.69 64.7196 151.04 62.5829 138.848C60.1616 125.018 68.0348 111.559 76.6465 100.406C80.0866 95.9505 83.7184 91.6114 87.5663 87.4665C98.4167 75.7524 110.936 65.5929 125.393 58.8322C144.974 49.6697 168.478 47.3379 188.335 55.8806C210.706 65.5078 225.505 87.5255 232.028 110.917C238.051 91.9108 251.131 74.7789 269.962 68.477C289.513 61.9394 312.086 68.5445 327.216 82.4235C342.34 96.299 350.554 116.458 352.829 136.747Z" fill="#E6E6E6"/>
<path d="M248.056 239.774C259.277 235.25 269.565 230.824 279.768 224.284C289.657 217.945 298.501 209.685 303.632 199.037C309.151 187.586 310.023 174.633 309.594 162.136C309.354 155.168 308.772 148.207 308.108 141.268C307.388 133.739 306.493 126.229 305.422 118.738C303.292 103.827 300.48 89.0331 296.986 74.3552C296.562 72.5737 296.127 70.7946 295.682 69.0179C295.408 67.9218 293.716 68.4418 293.989 69.5343C297.594 83.9534 300.538 98.5136 302.822 113.215C305.056 127.661 306.695 142.224 307.565 156.816C308.303 169.177 308.259 181.974 303.953 193.765C299.916 204.822 291.877 213.695 282.317 220.45C272.589 227.325 261.605 232.235 250.609 236.749C249.26 237.303 248.887 237.553 247.534 238.098C246.487 238.52 246.998 240.2 248.056 239.774L248.056 239.774Z" fill="white"/>
<path d="M58.7761 271.54C73.5962 267.896 88.8022 266.012 104.073 265.931C119.346 265.839 134.578 267.532 149.452 270.973C163.826 274.304 177.758 279.286 190.965 285.818C203.784 292.163 215.855 299.894 226.956 308.869C238.102 317.862 248.194 328.064 257.043 339.284C258.124 340.658 259.185 342.046 260.227 343.45C260.9 344.354 262.402 343.418 261.723 342.505C253.105 330.92 243.202 320.33 232.198 310.934C221.195 301.536 209.175 293.374 196.358 286.599C183.336 279.72 169.556 274.353 155.292 270.605C125.353 262.772 93.9663 262.084 63.7086 268.597C61.8841 268.992 60.0658 269.413 58.2538 269.862C57.1454 270.135 57.6711 271.813 58.7761 271.54L58.7761 271.54Z" fill="white"/>
<path d="M88.4952 88.9738C98.7354 89.0622 108.906 90.6381 118.681 93.651C128.682 96.7677 138.26 101.08 147.204 106.493C156.624 112.183 165.47 118.754 173.62 126.117C182.251 133.884 190.267 142.294 197.596 151.274C205.134 160.49 212.073 170.17 218.373 180.254C224.762 190.454 230.556 201.007 235.728 211.861C240.855 222.597 245.363 233.612 249.231 244.852C252.947 255.595 256.002 266.552 258.377 277.661C260.612 288.021 262.075 298.528 262.756 309.1C263.407 318.638 263.122 328.215 261.906 337.7C261.612 339.857 261.256 342.006 260.839 344.144C260.622 345.254 262.35 345.656 262.568 344.544C264.3 335.311 265.057 325.926 264.826 316.539C264.591 306.083 263.536 295.661 261.67 285.368C259.675 274.191 256.963 263.152 253.548 252.318C249.978 240.93 245.75 229.756 240.885 218.848C235.975 207.8 230.439 197.035 224.305 186.603C218.171 176.152 211.384 166.089 203.984 156.473C196.838 147.159 189.016 138.371 180.582 130.179C172.544 122.359 163.808 115.273 154.479 109.009C145.614 103.04 136.079 98.1068 126.064 94.3097C116.413 90.6664 106.291 88.3846 95.9951 87.5314C93.4824 87.3331 90.9649 87.2285 88.4427 87.2176C87.2974 87.2113 87.3547 88.9674 88.4952 88.9738L88.4952 88.9738Z" fill="white"/>
<g clip-path="url(#clip0)">
<path d="M535 244.089C535.001 254.077 531.189 263.696 524.328 271.025C517.466 278.353 508.06 282.851 497.99 283.619C497.65 283.644 497.306 283.67 496.962 283.685V246.056C496.962 245.68 496.877 245.309 496.714 244.969C496.55 244.63 496.312 244.331 496.016 244.094C495.982 244.06 495.944 244.029 495.903 244.003C495.866 243.973 495.826 243.946 495.785 243.922C495.423 243.692 495.01 243.555 494.582 243.524C494.153 243.493 493.724 243.568 493.333 243.744L492.906 242.819C493.373 242.609 493.879 242.499 494.392 242.498L465.112 217.557C465.339 217.302 465.575 217.053 465.811 216.804C471.331 211.051 478.469 207.066 486.303 205.365C494.137 203.664 502.306 204.326 509.756 207.264C517.206 210.201 523.593 215.281 528.093 221.846C532.593 228.41 534.999 236.159 535 244.089Z" fill="#F2F2F2"/>
<path d="M496.962 243.566C496.967 243.692 496.922 243.816 496.838 243.911C496.75 244.014 496.624 244.077 496.488 244.088C496.352 244.098 496.217 244.055 496.114 243.967L494.392 242.498L465.112 217.557L382.991 147.591C382.523 147.194 381.926 146.977 381.309 146.978C380.693 146.978 380.097 147.198 379.629 147.596L269.041 242.6L268.044 243.454C268.005 243.487 267.962 243.515 267.915 243.535C267.833 243.571 267.742 243.585 267.653 243.576C267.524 243.562 267.406 243.503 267.319 243.408C267.274 243.358 267.24 243.3 267.218 243.237C267.196 243.174 267.187 243.107 267.191 243.04C267.196 242.974 267.213 242.909 267.243 242.849C267.273 242.789 267.314 242.736 267.365 242.692L267.504 242.57L378.956 146.828C379.611 146.272 380.445 145.965 381.308 145.964C382.171 145.962 383.007 146.265 383.664 146.818L465.811 216.804L496.782 243.195C496.836 243.241 496.88 243.298 496.911 243.362C496.942 243.426 496.959 243.495 496.962 243.566Z" fill="#828282"/>
<path d="M434.523 258.576L433.171 254.896L428.513 242.188L418.48 214.827L407.264 184.243L387.036 129.079C386.639 128.003 385.827 127.127 384.778 126.642C383.729 126.157 382.528 126.103 381.438 126.492L264.492 168.42C263.403 168.813 262.517 169.616 262.026 170.653C261.536 171.691 261.482 172.878 261.875 173.956L290.553 252.161L291.041 253.498L321.143 266.988L329.604 270.78L330.976 271.395L366.799 287.451L368.187 286.953L391.683 278.531L427.126 265.824L431.901 264.111C432.99 263.719 433.877 262.916 434.368 261.879C434.86 260.841 434.915 259.653 434.523 258.576Z" fill="#9FC9F0"/>
<path d="M385.484 193.433C384.901 191.85 383.706 190.56 382.162 189.846C380.619 189.133 378.852 189.053 377.249 189.626L330.976 206.222L308.631 214.232C307.837 214.516 307.108 214.952 306.484 215.514C305.861 216.077 305.355 216.756 304.997 217.512C304.639 218.268 304.435 219.086 304.397 219.92C304.359 220.754 304.488 221.587 304.775 222.372C305.063 223.157 305.504 223.878 306.074 224.494C306.644 225.11 307.331 225.609 308.096 225.962C308.861 226.316 309.688 226.517 310.532 226.553C311.375 226.59 312.218 226.462 313.011 226.177L330.976 219.737L381.634 201.576C383.235 200.999 384.539 199.818 385.261 198.291C385.983 196.765 386.063 195.018 385.484 193.433Z" fill="white"/>
<path d="M393.631 215.656C393.048 214.072 391.854 212.783 390.31 212.069C388.766 211.355 386.999 211.276 385.397 211.849L377.558 214.659L330.976 231.362L316.779 236.45C315.178 237.025 313.873 238.206 313.152 239.732C312.431 241.257 312.351 243.004 312.932 244.588C313.512 246.172 314.705 247.463 316.247 248.177C317.79 248.892 319.556 248.972 321.158 248.4L330.976 244.877L389.781 223.793C389.915 223.748 390.043 223.692 390.172 223.636C391.665 222.988 392.853 221.803 393.496 220.321C394.138 218.839 394.186 217.172 393.631 215.656Z" fill="white"/>
<path d="M401.866 238.112C401.284 236.529 400.091 235.239 398.548 234.525C397.005 233.812 395.239 233.732 393.637 234.305L371.652 242.188L354.632 248.293L330.976 256.771L325.014 258.911C323.636 259.407 322.47 260.354 321.71 261.595C320.95 262.835 320.641 264.295 320.834 265.732C320.893 266.16 320.997 266.581 321.143 266.988L329.604 270.78L330.976 270.287H330.986L373.913 254.896L398.016 246.255C399.618 245.679 400.923 244.498 401.645 242.971C402.367 241.444 402.447 239.697 401.866 238.112H401.866Z" fill="white"/>
<path d="M353.686 171.587C353.103 170.004 351.908 168.714 350.365 168C348.821 167.287 347.054 167.207 345.451 167.78L318.876 177.305C317.275 177.881 315.97 179.061 315.249 180.587C314.528 182.113 314.448 183.86 315.029 185.443C315.609 187.027 316.802 188.318 318.344 189.033C319.887 189.748 321.653 189.827 323.255 189.255L331.665 186.241L337.232 184.243L349.836 179.725C351.437 179.149 352.741 177.969 353.463 176.443C354.185 174.917 354.265 173.171 353.686 171.587Z" fill="white"/>
<path d="M459.741 184.243H335.345C334.612 184.244 333.89 184.427 333.247 184.776C332.604 185.126 332.06 185.629 331.665 186.241C331.214 186.933 330.975 187.74 330.976 188.564V271.395L366.799 287.451L371.847 289.713L379.819 293.287C380.286 293.495 380.793 293.603 381.305 293.603C381.817 293.603 382.324 293.495 382.791 293.287L390.763 289.713L415.714 278.531L438.969 268.106L464.11 256.842V188.564C464.109 187.418 463.649 186.32 462.829 185.51C462.01 184.699 460.899 184.244 459.741 184.243Z" fill="#3EAEE0"/>
<path d="M434.039 242.188H361.047C359.387 242.189 357.792 242.825 356.596 243.963C355.401 245.101 354.697 246.653 354.632 248.293C354.623 248.376 354.62 248.459 354.622 248.542C354.624 250.226 355.302 251.841 356.506 253.032C357.711 254.223 359.344 254.893 361.047 254.895H434.039C435.743 254.895 437.378 254.226 438.583 253.035C439.788 251.843 440.465 250.227 440.465 248.542C440.465 246.857 439.788 245.241 438.583 244.049C437.378 242.858 435.743 242.188 434.039 242.188Z" fill="white"/>
<path d="M438.198 267.338C437.039 266.358 435.564 265.821 434.039 265.824H361.047C359.343 265.824 357.709 266.493 356.504 267.685C355.299 268.876 354.622 270.492 354.622 272.177C354.622 273.862 355.299 275.479 356.504 276.67C357.709 277.862 359.343 278.531 361.047 278.531H415.714L438.969 268.106C438.734 267.829 438.476 267.572 438.198 267.338Z" fill="white"/>
<path d="M371.847 289.713L379.819 293.287C380.286 293.495 380.793 293.603 381.305 293.603C381.817 293.603 382.324 293.495 382.791 293.287L390.763 289.713H371.847Z" fill="white"/>
<path d="M417.714 215.102C417.261 213.878 416.44 212.822 415.361 212.076C414.281 211.329 412.996 210.929 411.679 210.928H383.407C382.173 210.93 380.965 211.282 379.928 211.944C378.891 212.605 378.068 213.548 377.558 214.659C377.177 215.482 376.98 216.377 376.982 217.282C376.984 218.966 377.662 220.581 378.866 221.772C380.071 222.963 381.704 223.633 383.407 223.636H411.679C412.713 223.636 413.731 223.389 414.648 222.917C415.565 222.445 416.352 221.761 416.945 220.923C417.537 220.086 417.916 219.119 418.05 218.105C418.184 217.092 418.069 216.061 417.714 215.102Z" fill="white"/>
<g filter="url(#filter0_d)">
<path d="M413.221 278.531L388.27 289.713L382.364 292.361C382.031 292.51 381.67 292.586 381.305 292.586C380.94 292.586 380.579 292.51 380.246 292.361L374.34 289.713H371.847L379.819 293.287C380.286 293.495 380.793 293.603 381.305 293.603C381.817 293.603 382.324 293.495 382.791 293.287L390.763 289.713L415.714 278.531H413.221ZM413.221 278.531L388.27 289.713L382.364 292.361C382.031 292.51 381.67 292.586 381.305 292.586C380.94 292.586 380.579 292.51 380.246 292.361L374.34 289.713H371.847L379.819 293.287C380.286 293.495 380.793 293.603 381.305 293.603C381.817 293.603 382.324 293.495 382.791 293.287L390.763 289.713L415.714 278.531H413.221ZM413.221 278.531L388.27 289.713L382.364 292.361C382.031 292.51 381.67 292.586 381.305 292.586C380.94 292.586 380.579 292.51 380.246 292.361L374.34 289.713H371.847L379.819 293.287C380.286 293.495 380.793 293.603 381.305 293.603C381.817 293.603 382.324 293.495 382.791 293.287L390.763 289.713L415.714 278.531H413.221ZM496.962 243.566C496.772 243.379 496.564 243.212 496.34 243.068C495.835 242.744 495.255 242.551 494.655 242.508C494.055 242.464 493.453 242.571 492.906 242.819L438.198 267.338L413.221 278.531L388.27 289.713L382.364 292.361C382.031 292.51 381.67 292.586 381.305 292.586C380.94 292.586 380.579 292.51 380.246 292.361L374.34 289.713L368.187 286.953L330.986 270.286L330.976 270.281L320.834 265.732L290.553 252.161L269.704 242.819C269.492 242.722 269.269 242.648 269.041 242.6C268.537 242.476 268.012 242.465 267.504 242.57C266.691 242.734 265.96 243.171 265.435 243.806C264.91 244.441 264.622 245.236 264.62 246.056V373.703C264.621 374.646 265.001 375.551 265.675 376.218C266.35 376.885 267.264 377.26 268.218 377.261H494.392C495.346 377.26 496.26 376.885 496.935 376.218C497.609 375.551 497.989 374.646 497.99 373.703V246.056C497.992 245.125 497.622 244.23 496.962 243.566ZM496.962 373.703C496.962 374.377 496.691 375.023 496.209 375.5C495.727 375.976 495.073 376.244 494.392 376.244H268.218C267.537 376.244 266.883 375.976 266.401 375.5C265.919 375.023 265.648 374.377 265.648 373.703V246.056C265.648 245.632 265.756 245.214 265.962 244.841C266.167 244.468 266.464 244.152 266.825 243.922C267.079 243.761 267.359 243.644 267.653 243.576C267.739 243.557 267.827 243.544 267.915 243.535C268.015 243.521 268.117 243.514 268.218 243.515C268.584 243.515 268.945 243.593 269.277 243.744L291.041 253.498L321.143 266.988L329.604 270.78L330.976 271.395L366.799 287.451L371.847 289.713L379.819 293.287C380.286 293.495 380.793 293.603 381.305 293.603C381.817 293.603 382.324 293.495 382.791 293.287L390.763 289.713L415.714 278.531L438.969 268.106L493.333 243.744C493.724 243.568 494.153 243.493 494.582 243.524C495.01 243.555 495.423 243.692 495.785 243.922C495.826 243.946 495.866 243.973 495.903 244.003C495.944 244.029 495.982 244.06 496.016 244.094C496.312 244.331 496.55 244.63 496.714 244.969C496.877 245.309 496.962 245.68 496.962 246.056L496.962 373.703ZM413.221 278.531L388.27 289.713L382.364 292.361C382.031 292.51 381.67 292.586 381.305 292.586C380.94 292.586 380.579 292.51 380.246 292.361L374.34 289.713H371.847L379.819 293.287C380.286 293.495 380.793 293.603 381.305 293.603C381.817 293.603 382.324 293.495 382.791 293.287L390.763 289.713L415.714 278.531H413.221ZM413.221 278.531L388.27 289.713L382.364 292.361C382.031 292.51 381.67 292.586 381.305 292.586C380.94 292.586 380.579 292.51 380.246 292.361L374.34 289.713H371.847L379.819 293.287C380.286 293.495 380.793 293.603 381.305 293.603C381.817 293.603 382.324 293.495 382.791 293.287L390.763 289.713L415.714 278.531H413.221ZM329.604 270.78L330.976 271.395V270.286L329.604 270.78ZM413.221 278.531L388.27 289.713L382.364 292.361C382.031 292.51 381.67 292.586 381.305 292.586C380.94 292.586 380.579 292.51 380.246 292.361L374.34 289.713H371.847L379.819 293.287C380.286 293.495 380.793 293.603 381.305 293.603C381.817 293.603 382.324 293.495 382.791 293.287L390.763 289.713L415.714 278.531H413.221Z" fill="#828282"/>
</g>
<path opacity="0.1" d="M452.035 379.013C458.121 379.013 463.055 378.343 463.055 377.517C463.055 376.691 458.121 376.022 452.035 376.022C445.949 376.022 441.015 376.691 441.015 377.517C441.015 378.343 445.949 379.013 452.035 379.013Z" fill="#0096D8"/>
<path d="M501.523 382.91C501.523 382.91 516.983 332.78 499.106 312.702C485.754 297.681 470.551 299.492 463.756 301.337C461.997 301.8 460.361 302.636 458.961 303.787C457.561 304.938 456.431 306.377 455.65 308.003C453.265 313.075 453.704 321.307 470.48 330.917C498.572 347.009 500.322 369.082 500.322 369.082L501.523 382.91Z" fill="#0096D8"/>
<path d="M466.174 308.446C466.174 308.446 511.743 322.543 501.523 382.91" stroke="#565987" stroke-miterlimit="10"/>
<path d="M492.783 313.499C492.783 313.499 486.507 317.684 488.491 323.968" stroke="#565987" stroke-miterlimit="10"/>
<path d="M470.747 317.221C470.747 317.221 474.562 313.362 479.249 315.49" stroke="#565987" stroke-miterlimit="10"/>
<path d="M488.758 336.634C488.758 336.634 495.491 333.257 497.232 337.488" stroke="#565987" stroke-miterlimit="10"/>
<path d="M505.424 343.683C505.424 343.683 500.365 343.286 500.274 345.678" stroke="#565987" stroke-miterlimit="10"/>
<path d="M502.148 383.311C502.148 383.311 484.028 346.876 479.073 347.674C476.689 348.051 475.62 350.353 475.129 352.66C474.519 355.646 474.864 358.746 476.116 361.529C478.687 367.36 485.587 378.433 502.148 383.311Z" fill="#0096D8"/>
<path d="M479.206 354.59C479.206 354.59 498.209 381.848 501.881 383.046" stroke="#565987" stroke-miterlimit="10"/>
<path d="M477.461 358.845H481.896" stroke="#565987" stroke-miterlimit="10"/>
<path d="M482.773 368.818L489.726 369.113" stroke="#565987" stroke-miterlimit="10"/>
<path d="M487.003 360.84L486.25 364.421" stroke="#565987" stroke-miterlimit="10"/>
<path d="M494.394 371.743L494.261 374.998" stroke="#565987" stroke-miterlimit="10"/>
<path d="M501.614 383.311C501.614 383.311 519.735 346.876 524.689 347.674C527.074 348.051 528.142 350.353 528.633 352.66C529.243 355.646 528.898 358.746 527.646 361.529C525.076 367.36 518.175 378.433 501.614 383.311Z" fill="#0096D8"/>
<path d="M524.556 354.59C524.556 354.59 505.553 381.848 501.881 383.046" stroke="#565987" stroke-miterlimit="10"/>
<path d="M526.301 358.845H521.866" stroke="#565987" stroke-miterlimit="10"/>
<path d="M520.989 368.818L514.036 369.113" stroke="#565987" stroke-miterlimit="10"/>
<path d="M516.759 360.84L517.513 364.421" stroke="#565987" stroke-miterlimit="10"/>
<path d="M509.363 371.743L509.501 374.998" stroke="#565987" stroke-miterlimit="10"/>
<path d="M451.32 362.157C451.32 362.157 449.841 364.067 452.002 366.95C454.162 369.832 455.936 372.271 455.22 374.069C455.22 374.069 451.963 368.714 449.312 368.639C446.661 368.563 448.401 365.379 451.32 362.157Z" fill="#0096D8"/>
<path opacity="0.1" d="M451.32 362.157C451.189 362.341 451.086 362.543 451.014 362.756C448.43 365.761 447.052 368.568 449.536 368.639C451.854 368.705 454.634 372.8 455.297 373.828C455.297 373.908 455.249 373.989 455.22 374.064C455.22 374.064 451.963 368.71 449.312 368.634C446.661 368.559 448.401 365.379 451.32 362.157Z" fill="black"/>
<path d="M448.573 364.591C448.573 365.266 448.649 365.808 448.745 365.808C448.84 365.808 448.912 365.266 448.912 364.591C448.912 363.916 448.816 364.237 448.726 364.237C448.635 364.237 448.573 363.921 448.573 364.591Z" fill="#FFD037"/>
<path d="M447.629 365.393C448.225 365.719 448.749 365.912 448.792 365.832C448.835 365.752 448.392 365.421 447.796 365.101C447.2 364.78 447.433 365.011 447.386 365.101C447.338 365.19 447.033 365.072 447.629 365.393Z" fill="#FFD037"/>
<path d="M459.116 362.157C459.116 362.157 460.595 364.067 458.434 366.95C456.274 369.832 454.5 372.271 455.22 374.069C455.22 374.069 458.473 368.714 461.124 368.639C463.775 368.563 462.035 365.379 459.116 362.157Z" fill="#0096D8"/>
<path opacity="0.1" d="M459.116 362.157C459.247 362.341 459.35 362.543 459.422 362.756C462.006 365.761 463.384 368.568 460.9 368.639C458.582 368.705 455.802 372.8 455.139 373.828C455.161 373.908 455.188 373.987 455.22 374.064C455.22 374.064 458.473 368.71 461.124 368.634C463.775 368.559 462.035 365.379 459.116 362.157Z" fill="black"/>
<path d="M461.863 364.591C461.863 365.266 461.787 365.808 461.691 365.808C461.596 365.808 461.525 365.266 461.525 364.591C461.525 363.916 461.62 364.237 461.71 364.237C461.801 364.237 461.863 363.921 461.863 364.591Z" fill="#FFD037"/>
<path d="M462.807 365.393C462.211 365.719 461.687 365.912 461.644 365.832C461.601 365.752 462.044 365.421 462.64 365.101C463.236 364.78 463.003 365.011 463.05 365.101C463.098 365.19 463.403 365.072 462.807 365.393Z" fill="#FFD037"/>
<path d="M461.391 373.819C461.391 373.819 457.266 373.696 456.021 372.819C454.777 371.941 449.67 370.894 449.345 372.3C449.021 373.706 443.146 379.291 447.8 379.329C452.455 379.367 458.635 378.612 459.874 377.862C461.114 377.112 461.391 373.819 461.391 373.819Z" fill="#A8A8A8"/>
<path opacity="0.2" d="M447.734 378.838C452.393 378.876 458.563 378.121 459.808 377.371C460.761 376.805 461.129 374.758 461.238 373.814H461.372C461.372 373.814 461.114 377.116 459.87 377.857C458.625 378.598 452.459 379.362 447.796 379.324C446.451 379.324 445.988 378.853 446.012 378.14C446.217 378.569 446.732 378.834 447.734 378.838Z" fill="black"/>
<path opacity="0.1" d="M521.053 207.638C526.75 207.638 531.368 203.07 531.368 197.434C531.368 191.798 526.75 187.23 521.053 187.23C515.357 187.23 510.739 191.798 510.739 197.434C510.739 203.07 515.357 207.638 521.053 207.638Z" fill="#0096D8"/>
<path opacity="0.1" d="M484.595 296.199C494.142 296.199 501.881 288.543 501.881 279.098C501.881 269.653 494.142 261.996 484.595 261.996C475.048 261.996 467.309 269.653 467.309 279.098C467.309 288.543 475.048 296.199 484.595 296.199Z" fill="#0096D8"/>
<path d="M265.681 246.663L322.546 268.009V350.672H265.681V246.663Z" fill="url(#paint0_linear)"/>
</g>
<defs>
<filter id="filter0_d" x="236.62" y="218.498" width="289.37" height="190.763" filterUnits="userSpaceOnUse" color-interpolation-filters="sRGB">
<feFlood flood-opacity="0" result="BackgroundImageFix"/>
<feColorMatrix in="SourceAlpha" type="matrix" values="0 0 0 0 0 0 0 0 0 0 0 0 0 0 0 0 0 0 127 0"/>
<feOffset dy="4"/>
<feGaussianBlur stdDeviation="14"/>
<feColorMatrix type="matrix" values="0 0 0 0 0.0541667 0 0 0 0 0.0541667 0 0 0 0 0.0541667 0 0 0 0.25 0"/>
<feBlend mode="normal" in2="BackgroundImageFix" result="effect1_dropShadow"/>
<feBlend mode="normal" in="SourceGraphic" in2="effect1_dropShadow" result="shape"/>
</filter>
<linearGradient id="paint0_linear" x1="272.554" y1="257.142" x2="318.478" y2="285.256" gradientUnits="userSpaceOnUse">
<stop offset="0.0252166" stop-color="#E3E3E3"/>
<stop offset="1" stop-color="#F8F8F8"/>
</linearGradient>
<clipPath id="clip0">
<rect width="390.948" height="251.029" fill="white" transform="translate(144.052 126.232)"/>
</clipPath>
</defs>
</svg>
