<svg width="574" height="373" viewBox="0 0 574 373" fill="none" xmlns="http://www.w3.org/2000/svg">
<path d="M174.553 0.486816C144.759 42.5759 136.889 282.122 135.135 358.908C135.09 360.638 135.045 362.278 135.023 363.829H59.6059C58.6839 362.189 57.8294 360.571 57.02 358.908C12.3184 270.729 37.1202 165.001 38.4243 159.653C35.0291 176.461 50.3867 225.18 67.7457 272.37C78.3364 127.271 168.886 7.81256 174.553 0.486816Z" fill="#E6E6E6"/>
<path d="M529.499 362.79C542.844 375.755 -13.1476 375.755 0.237892 362.787C-13.1071 349.825 542.885 349.825 529.499 362.79Z" fill="#E6E6E6"/>
<path d="M486.052 357.75H143.553C141.871 357.748 140.259 357.088 139.07 355.914C137.881 354.74 137.212 353.148 137.21 351.488V62.3278C137.212 60.6676 137.881 59.076 139.07 57.902C140.259 56.7281 141.871 56.0677 143.553 56.0658H486.052C487.734 56.0677 489.346 56.7281 490.535 57.902C491.724 59.076 492.393 60.6676 492.395 62.3278V351.488C492.393 353.148 491.724 354.74 490.535 355.914C489.346 357.088 487.734 357.748 486.052 357.75ZM143.553 58.5706C142.544 58.5717 141.577 58.9679 140.863 59.6722C140.15 60.3766 139.749 61.3316 139.747 62.3278V351.488C139.749 352.484 140.15 353.439 140.863 354.144C141.577 354.848 142.544 355.244 143.553 355.245H486.052C487.061 355.244 488.028 354.848 488.742 354.144C489.455 353.439 489.857 352.484 489.858 351.488V62.3278C489.857 61.3316 489.455 60.3766 488.742 59.6722C488.028 58.9679 487.061 58.5717 486.052 58.5706H143.553Z" fill="#3F3D56"/>
<path d="M195.829 331.697C209.978 331.697 221.447 321.123 221.447 308.079C221.447 295.035 209.978 284.461 195.829 284.461C181.68 284.461 170.21 295.035 170.21 308.079C170.21 321.123 181.68 331.697 195.829 331.697Z" fill="#E6E6E6"/>
<path d="M256.13 293.145C254.992 293.146 253.902 293.347 253.098 293.705C252.294 294.062 251.842 294.547 251.842 295.053C251.842 295.558 252.294 296.043 253.098 296.401C253.902 296.759 254.992 296.96 256.13 296.961H458.574C459.713 296.961 460.805 296.76 461.611 296.402C462.416 296.044 462.868 295.559 462.868 295.053C462.868 294.547 462.416 294.061 461.611 293.704C460.805 293.346 459.713 293.145 458.574 293.145H256.13Z" fill="#E6E6E6"/>
<path d="M256.128 318.329C254.991 318.329 253.901 318.621 253.097 319.142C252.294 319.663 251.842 320.369 251.842 321.105C251.842 321.842 252.294 322.548 253.097 323.068C253.901 323.589 254.991 323.882 256.128 323.882H343.076C343.639 323.882 344.197 323.811 344.718 323.671C345.239 323.532 345.712 323.328 346.111 323.07C346.509 322.812 346.826 322.506 347.041 322.169C347.257 321.832 347.368 321.47 347.368 321.105C347.368 320.74 347.257 320.379 347.041 320.042C346.826 319.705 346.509 319.399 346.111 319.141C345.712 318.883 345.239 318.678 344.718 318.539C344.197 318.4 343.639 318.328 343.076 318.329H256.128Z" fill="#E6E6E6"/>
<path d="M566.815 255.276H224.316C222.635 255.274 221.023 254.624 219.833 253.469C218.644 252.313 217.976 250.747 217.974 249.113V103.045C217.976 101.411 218.644 99.8445 219.834 98.689C221.023 97.5335 222.635 96.8835 224.316 96.8816H566.815C568.497 96.8835 570.109 97.5335 571.298 98.689C572.487 99.8445 573.156 101.411 573.158 103.045V249.113C573.156 250.747 572.487 252.313 571.298 253.469C570.109 254.624 568.497 255.274 566.815 255.276Z" fill="#3EAEE0"/>
<path d="M293.508 148.987C292.36 148.988 291.261 149.281 290.45 149.801C289.639 150.322 289.184 151.028 289.184 151.763C289.184 152.499 289.639 153.204 290.45 153.725C291.261 154.245 292.36 154.538 293.508 154.539H497.624C498.771 154.538 499.871 154.245 500.681 153.725C501.492 153.204 501.947 152.499 501.947 151.763C501.947 151.028 501.492 150.322 500.681 149.801C499.871 149.281 498.771 148.988 497.624 148.987H293.508Z" fill="white"/>
<path d="M293.508 174.171C292.36 174.172 291.261 174.419 290.45 174.858C289.639 175.297 289.184 175.893 289.184 176.513C289.184 177.134 289.639 177.729 290.45 178.168C291.261 178.607 292.36 178.854 293.508 178.855H497.624C498.771 178.854 499.871 178.607 500.681 178.168C501.492 177.729 501.947 177.134 501.947 176.513C501.947 175.893 501.492 175.297 500.681 174.858C499.871 174.419 498.771 174.172 497.624 174.171H293.508Z" fill="white"/>
<path d="M293.542 198.487C292.386 198.488 291.277 198.735 290.46 199.174C289.643 199.613 289.184 200.208 289.184 200.829C289.184 201.449 289.643 202.045 290.46 202.484C291.277 202.923 292.386 203.17 293.542 203.171H382.077C382.65 203.171 383.218 203.111 383.749 202.994C384.279 202.876 384.761 202.704 385.167 202.486C385.573 202.269 385.895 202.01 386.114 201.726C386.334 201.442 386.447 201.137 386.447 200.829C386.447 200.521 386.334 200.216 386.114 199.932C385.895 199.647 385.573 199.389 385.167 199.172C384.761 198.954 384.279 198.782 383.749 198.664C383.218 198.547 382.65 198.486 382.077 198.487H293.542Z" fill="white"/>
</svg>
