<svg width="213" height="208" viewBox="0 0 213 208" fill="none" xmlns="http://www.w3.org/2000/svg">
<ellipse cx="106.481" cy="103.99" rx="87.9834" ry="86.3168" fill="#3EAEE0"/>
<path d="M106.481 0.408936C48.2603 0.408936 0.900635 46.8759 0.900635 103.989C0.900635 161.102 48.2603 207.569 106.481 207.569C164.701 207.569 212.061 161.102 212.061 103.989C212.061 46.8759 164.701 0.408936 106.481 0.408936ZM106.481 198.938C53.1149 198.938 9.69884 156.344 9.69884 103.989C9.69884 51.6342 53.1149 9.04048 106.481 9.04048C159.847 9.04048 203.263 51.6342 203.263 103.989C203.263 156.344 159.847 198.938 106.481 198.938Z" fill="#FAFBF6"/>
<path d="M148.453 100.36L86.8651 61.5172C85.5161 60.6533 83.7719 60.6068 82.38 61.357C80.9621 62.1156 80.0857 63.5657 80.0857 65.1461V142.831C80.0857 144.412 80.9621 145.862 82.38 146.62C83.0329 146.97 83.7633 147.147 84.485 147.147C85.3099 147.147 86.1434 146.919 86.8651 146.46L148.453 107.618C149.708 106.825 150.473 105.455 150.473 103.989C150.473 102.522 149.708 101.152 148.453 100.36ZM88.8839 134.924V73.053L137.937 103.989L88.8839 134.924Z" fill="#F8F8F8"/>
</svg>
