<svg width="43" height="43" viewBox="0 0 43 43" fill="none" xmlns="http://www.w3.org/2000/svg">
<path d="M21.5 42.6913C33.3741 42.6913 43 33.1343 43 21.3452C43 9.55602 33.3741 -0.000976562 21.5 -0.000976562C9.62588 -0.000976562 0 9.55602 0 21.3452C0 33.1343 9.62588 42.6913 21.5 42.6913Z" fill="white"/>
<path d="M34.346 23.0634V31.864H29.2069V23.6532C29.2069 21.5916 28.4649 20.1837 26.6042 20.1837C25.1843 20.1837 24.3407 21.1316 23.9682 22.0494C23.8329 22.3774 23.798 22.8329 23.798 23.2929V31.8636H18.6585C18.6585 31.8636 18.7275 17.9573 18.6585 16.5178H23.7984V18.6925C23.788 18.7096 23.7735 18.7263 23.7643 18.7427H23.7984V18.6925C24.4814 17.6491 25.6994 16.1575 28.4301 16.1575C31.8112 16.1575 34.346 18.3508 34.346 23.0634ZM13.2822 9.12061C11.5242 9.12061 10.374 10.2663 10.374 11.7717C10.374 13.245 11.4908 14.4238 13.2147 14.4238H13.2481C15.0406 14.4238 16.1551 13.245 16.1551 11.7717C16.121 10.2663 15.0406 9.12061 13.2822 9.12061ZM10.6795 31.864H15.8171V16.5178H10.6795V31.864Z" fill="#3EAEE0"/>
</svg>
